<?xml version="1.0" standalone="no"?>
<!DOCTYPE svg PUBLIC "-//W3C//DTD SVG 20010904//EN"
 "http://www.w3.org/TR/2001/REC-SVG-20010904/DTD/svg10.dtd">
<svg version="1.0" xmlns="http://www.w3.org/2000/svg"
 width="357.000000pt" height="527.000000pt" viewBox="0 0 357.000000 527.000000"
 preserveAspectRatio="xMidYMid meet">
<metadata>
Created by potrace 1.16, written by Peter Selinger 2001-2019
</metadata>
<g transform="translate(0.000000,527.000000) scale(0.100000,-0.100000)"
fill="#000000" stroke="none">
<path d="M1286 4412 c-77 -202 -126 -477 -156 -887 -10 -137 -14 -156 -45
-225 -31 -67 -81 -239 -115 -390 -20 -91 -93 -232 -150 -288 -27 -27 -47 -52
-43 -55 3 -4 32 -7 63 -7 l57 0 6 -60 c8 -71 35 -131 86 -183 60 -64 145 -97
126 -48 -4 9 -11 29 -16 44 -8 28 -7 28 35 -11 24 -23 62 -50 85 -61 23 -12
41 -23 41 -24 0 -24 -34 -107 -44 -107 -64 0 -231 -227 -264 -359 -9 -36 -17
-67 -18 -69 -1 -1 -25 9 -55 23 -88 41 -222 32 -304 -19 -112 -71 -102 -186
22 -250 l46 -23 -67 -31 c-70 -33 -186 -133 -212 -184 -28 -54 -9 -107 43
-125 46 -16 87 3 166 77 88 82 125 100 206 100 94 0 95 -2 56 -73 -47 -87 -65
-157 -65 -251 1 -132 40 -189 158 -230 24 -9 55 -24 70 -34 49 -35 99 -44 201
-40 72 3 106 9 136 25 77 40 100 92 32 72 -54 -15 -158 -10 -203 10 -44 20
-105 85 -136 145 -26 51 -36 178 -18 241 7 25 16 45 21 45 5 0 50 -31 100 -69
51 -39 117 -79 151 -92 55 -20 70 -22 205 -16 l146 7 -6 -128 c-4 -93 -10
-136 -23 -161 -15 -30 -17 -67 -17 -298 0 -295 0 -294 74 -338 49 -29 241 -36
269 -10 24 22 26 65 4 108 -14 27 -16 52 -10 167 3 74 13 169 21 210 25 119
39 223 50 373 5 53 10 96 11 94 11 -11 31 -233 27 -292 -5 -69 12 -225 42
-370 8 -38 17 -90 20 -115 8 -62 36 -105 87 -132 37 -19 59 -22 148 -23 103 0
104 0 120 28 14 25 13 30 -12 80 -15 28 -32 77 -39 107 -11 55 -23 393 -24
669 l0 144 55 1 c66 1 115 31 136 83 19 44 6 92 -40 157 -19 27 -37 64 -41 83
-4 22 -13 37 -24 40 -13 3 -32 44 -65 140 l-47 135 43 39 43 39 -27 24 c-15
13 -35 30 -45 38 -10 7 -63 63 -117 124 -54 62 -113 120 -132 130 -55 30 -44
44 34 44 158 0 323 41 400 99 30 22 37 23 66 13 68 -25 148 -13 213 31 43 29
41 43 -4 52 -34 7 -36 8 -19 19 72 42 93 86 42 86 -85 0 -166 151 -144 269 5
31 12 63 16 71 3 8 6 17 7 20 4 18 27 80 29 80 1 0 26 -7 55 -16 63 -18 72
-13 98 54 13 33 18 74 18 137 0 102 -21 158 -84 229 -22 24 -31 41 -24 43 22
8 76 48 80 60 2 6 -18 18 -49 28 -29 8 -73 26 -98 38 l-45 22 -2 80 c-2 78
-21 325 -28 375 -2 14 -11 76 -20 139 -29 200 -64 308 -108 335 -16 9 -25 4
-62 -36 -77 -85 -246 -388 -311 -558 -15 -41 -32 -78 -37 -81 -5 -3 -27 -3
-50 2 -23 4 -112 7 -198 6 l-156 -2 -33 112 c-73 255 -279 593 -361 593 -24 0
-30 -7 -53 -68z m131 -37 c29 -21 118 -161 169 -269 43 -91 97 -244 109 -307
l6 -34 -72 -18 c-95 -23 -190 -62 -266 -107 -59 -37 -61 -37 -67 -16 -18 66 1
379 35 576 33 196 39 208 86 175z m1161 -72 c34 -49 80 -358 89 -605 3 -87 3
-158 -2 -158 -4 0 -49 29 -101 65 -92 64 -128 83 -214 112 -25 8 -46 16 -48
18 -5 5 58 201 98 304 55 142 133 291 152 291 4 0 15 -12 26 -27z m241 -998
c37 -43 71 -107 71 -135 0 -11 -1 -20 -2 -20 -2 0 -56 -14 -121 -30 -66 -16
-122 -28 -126 -25 -5 2 -23 0 -42 -4 -19 -5 -56 -12 -84 -15 l-50 -6 45 26
c53 30 120 92 120 111 0 31 -32 24 -76 -17 -64 -59 -115 -80 -198 -80 -67 0
-68 0 -64 -25 4 -16 1 -25 -8 -25 -7 0 -14 12 -16 27 -4 39 -26 40 -36 1 l-8
-33 -85 1 c-93 2 -179 15 -222 35 -27 12 -21 14 100 36 244 45 506 122 668
197 78 37 86 36 134 -19z m-834 -484 l65 -30 1 -48 c3 -107 -12 -171 -47 -204
-20 -19 -38 -23 -123 -27 -94 -4 -102 -3 -145 22 -85 50 -146 151 -146 241 0
30 4 35 43 49 120 45 248 44 352 -3z m621 -1 c29 -18 34 -27 34 -58 0 -47 -24
-136 -44 -167 -9 -13 -28 -36 -43 -50 -25 -24 -34 -26 -91 -23 -38 3 -68 10
-78 19 -19 19 -38 138 -31 197 5 49 30 78 86 99 47 17 123 10 167 -17z m-853
-610 c64 -15 97 -27 97 -36 0 -8 -24 -26 -52 -40 -75 -38 -115 -72 -183 -156
-48 -60 -135 -141 -135 -126 0 2 9 26 19 54 23 59 51 200 51 254 l0 38 34 -10
c46 -14 70 -5 56 21 -13 26 -13 34 3 28 6 -2 56 -15 110 -27z m110 -163 c-3
-6 -1 -7 4 -4 6 4 16 1 22 -7 10 -12 7 -14 -17 -12 -23 2 -28 -2 -30 -24 -3
-41 -55 -255 -63 -258 -4 -2 -5 -12 -2 -22 5 -18 3 -19 -26 -9 -17 6 -33 15
-36 20 -3 4 -12 6 -20 3 -19 -8 -148 54 -140 66 3 5 0 7 -8 4 -8 -3 -18 0 -22
6 -9 15 15 42 31 36 8 -3 13 -2 11 3 -6 22 197 235 217 228 7 -3 21 4 31 15
17 20 17 20 35 -8 11 -15 16 -32 13 -37z m-589 23 c35 -13 33 -38 -9 -93 l-36
-47 -40 30 c-22 16 -46 31 -52 33 -15 5 17 43 58 68 34 22 44 23 79 9z m889
-27 c27 -40 61 -173 72 -283 4 -36 18 -95 30 -132 16 -46 20 -68 12 -68 -8 0
-7 -3 2 -9 11 -7 10 -10 -5 -14 -59 -17 -108 -19 -309 -12 l-222 7 20 62 c12
33 27 66 34 71 13 10 83 287 83 328 0 22 27 34 40 17 11 -14 93 -40 129 -40
46 0 69 22 78 74 3 20 7 36 8 36 1 0 14 -17 28 -37z m-613 -304 c0 -6 -42
-122 -57 -159 -3 -8 -7 -17 -7 -20 -1 -3 -7 -24 -15 -47 -12 -37 -18 -43 -43
-43 -24 0 -28 -4 -29 -27 -2 -35 -3 -43 -13 -68 -4 -11 -12 -32 -18 -47 -21
-55 -32 -54 -97 11 -33 33 -63 72 -67 86 -7 27 3 42 134 203 32 40 74 99 93
131 l34 58 42 -36 c24 -19 43 -38 43 -42z m110 -37 c30 -10 53 -23 51 -28 -15
-35 -23 -59 -45 -134 -36 -119 -35 -118 -93 -97 -26 9 -56 17 -65 17 -25 0
-23 12 22 136 22 60 40 115 40 123 0 14 0 14 90 -17z m708 -97 c22 -60 43
-117 47 -126 4 -12 -4 -23 -30 -39 -49 -30 -60 -18 -61 73 -1 46 -9 94 -23
131 -20 56 -20 60 -3 72 9 7 20 10 24 6 4 -4 25 -56 46 -117z m-1475 39 c35
-6 37 -8 37 -45 0 -49 -18 -59 -104 -59 -64 0 -146 23 -146 41 0 15 44 49 75
58 37 11 88 13 138 5z m1173 -160 c48 -4 110 -2 149 5 55 10 70 10 76 -1 5 -7
7 -17 6 -23 -9 -26 -269 -42 -422 -26 -139 15 -144 16 -137 43 5 20 9 20 126
14 67 -3 158 -9 202 -12z m-478 -74 c60 -22 62 -24 49 -44 -20 -30 -29 -73
-31 -141 -1 -54 -3 -60 -23 -63 -15 -2 -23 2 -23 12 0 30 -20 26 -34 -8 -22
-52 -56 -64 -124 -42 -25 8 -52 53 -52 87 0 13 16 53 35 90 21 42 35 82 35
105 l0 36 53 -4 c28 -3 80 -15 115 -28z m875 -6 c6 -16 21 -45 33 -64 13 -19
20 -37 16 -40 -5 -3 -8 -21 -8 -40 1 -28 -3 -35 -19 -35 -12 0 -25 11 -33 28
-9 19 -17 26 -24 19 -11 -11 6 -51 26 -64 21 -14 55 -8 75 14 20 21 20 21 16
0 -11 -57 -61 -96 -117 -90 -25 2 -33 9 -40 33 -8 25 -37 197 -38 216 0 10 83
59 94 55 6 -1 14 -15 19 -32z m-593 5 c64 -7 154 -9 230 -4 206 12 204 12 208
-7 3 -13 -8 -18 -55 -25 -152 -21 -573 2 -573 32 0 21 14 27 50 21 19 -4 82
-11 140 -17z m-10 -69 c52 -5 119 -10 149 -10 l54 0 -7 -42 c-4 -30 -3 -39 4
-28 5 8 10 27 10 43 0 21 5 27 21 27 19 0 21 -5 17 -40 -2 -22 0 -40 4 -40 5
0 8 17 8 39 l0 38 63 7 c34 4 79 10 100 13 33 5 37 3 37 -16 0 -11 5 -21 11
-21 6 0 9 -21 7 -52 l-3 -53 -70 -17 c-38 -10 -99 -20 -135 -23 -59 -4 -61 -4
-21 5 24 5 55 17 70 27 22 15 23 18 8 21 -10 2 -32 -1 -49 -7 -17 -6 -50 -11
-74 -11 l-43 0 -3 40 c-5 71 -23 49 -26 -32 l-3 -77 -46 -7 c-50 -7 -254 1
-291 12 -26 8 -25 29 10 152 l21 74 41 -6 c23 -3 84 -10 136 -16z m-1345 -111
c19 -17 35 -39 35 -49 0 -25 -77 -80 -111 -80 -30 0 -59 23 -59 46 0 34 61
114 87 114 7 0 28 -14 48 -31z m1848 -66 c3 -16 0 -33 -6 -40 -20 -20 -123
-42 -227 -49 l-97 -6 -5 29 -4 30 110 13 c61 6 134 20 161 30 28 9 53 18 56
19 4 0 9 -11 12 -26z m-490 -71 l128 4 -3 -25 c-4 -33 -27 -39 -163 -40 -135
-1 -183 6 -195 30 -20 36 -4 47 53 37 29 -6 110 -8 180 -6z m477 -186 c0 -149
-2 -175 -16 -180 -26 -10 -176 -5 -224 7 -44 12 -45 13 -47 57 -2 25 -8 63
-13 85 -5 22 -12 67 -15 101 l-7 61 122 12 c67 7 132 16 144 21 57 23 56 25
56 -164z m-375 44 c-14 -135 -28 -226 -37 -244 -9 -17 -20 -18 -136 -14 -143
6 -165 11 -157 39 4 11 7 69 7 130 0 61 2 118 5 127 3 15 23 17 164 17 l160 0
-6 -55z m287 -330 l87 0 3 -122 c2 -68 0 -127 -5 -133 -13 -17 -131 -18 -190
-1 -47 14 -56 20 -61 44 -5 24 -36 226 -36 236 0 2 26 -3 58 -11 31 -7 96 -13
144 -13z m-518 -31 c39 -6 94 -9 124 -7 53 5 54 5 48 -21 -3 -14 -10 -69 -17
-121 -6 -52 -16 -101 -21 -107 -13 -16 -137 -17 -208 -2 -45 10 -50 14 -51 37
-1 60 -1 140 0 191 1 53 1 53 29 47 15 -3 58 -11 96 -17z"/>
</g>
</svg>
